{
	"asset":{
		"generator":"Khronos glTF Blender I/O v3.6.6",
		"version":"2.0"
	},
	"scene":0,
	"scenes":[
		{
			"name":"Scene",
			"nodes":[
				0
			]
		}
	],
	"nodes":[
		{
			"mesh":0,
			"name":"_7_tree",
			"rotation":[
				0.019247036427259445,
				-0.9586397409439087,
				-0.17452076077461243,
				0.22401317954063416
			],
			"scale":[
				2.999999761581421,
				4,
				3
			],
			"translation":[
				0.004635334014892578,
				-0.01165103167295456,
				0.02406620979309082
			]
		}
	],
	"materials":[
		{
			"doubleSided":true,
			"name":"canopy",
			"pbrMetallicRoughness":{
				"baseColorFactor":[
					0.0030352140311151743,
					0.06300999224185944,
					0.010960106737911701,
					1
				],
				"metallicFactor":0,
				"roughnessFactor":0.5
			}
		},
		{
			"doubleSided":true,
			"name":"trunk",
			"pbrMetallicRoughness":{
				"baseColorFactor":[
					0.2158605456352234,
					0.06124597415328026,
					0.010960112325847149,
					1
				],
				"metallicFactor":0,
				"roughnessFactor":0.5
			}
		}
	],
	"meshes":[
		{
			"name":"Icosphere.042",
			"primitives":[
				{
					"attributes":{
						"POSITION":0,
						"TEXCOORD_0":1,
						"TEXCOORD_1":2,
						"NORMAL":3
					},
					"indices":4,
					"material":0
				},
				{
					"attributes":{
						"POSITION":5,
						"TEXCOORD_0":6,
						"TEXCOORD_1":7,
						"NORMAL":8
					},
					"indices":9,
					"material":1
				}
			]
		}
	],
	"accessors":[
		{
			"bufferView":0,
			"componentType":5126,
			"count":1430,
			"max":[
				1.2371186017990112,
				6.521015167236328,
				3.4310991764068604
			],
			"min":[
				-2.266961097717285,
				1.5901684761047363,
				-0.07671904563903809
			],
			"type":"VEC3"
		},
		{
			"bufferView":1,
			"componentType":5126,
			"count":1430,
			"type":"VEC2"
		},
		{
			"bufferView":2,
			"componentType":5126,
			"count":1430,
			"type":"VEC2"
		},
		{
			"bufferView":3,
			"componentType":5126,
			"count":1430,
			"type":"VEC3"
		},
		{
			"bufferView":4,
			"componentType":5123,
			"count":1710,
			"type":"SCALAR"
		},
		{
			"bufferView":5,
			"componentType":5126,
			"count":98,
			"max":[
				0.2904432415962219,
				1.7377369403839111,
				0.9134020805358887
			],
			"min":[
				-0.42157238721847534,
				-0.07074308395385742,
				-0.2801724672317505
			],
			"type":"VEC3"
		},
		{
			"bufferView":6,
			"componentType":5126,
			"count":98,
			"type":"VEC2"
		},
		{
			"bufferView":7,
			"componentType":5126,
			"count":98,
			"type":"VEC2"
		},
		{
			"bufferView":8,
			"componentType":5126,
			"count":98,
			"type":"VEC3"
		},
		{
			"bufferView":9,
			"componentType":5123,
			"count":102,
			"type":"SCALAR"
		}
	],
	"bufferViews":[
		{
			"buffer":0,
			"byteLength":17160,
			"byteOffset":0,
			"target":34962
		},
		{
			"buffer":0,
			"byteLength":11440,
			"byteOffset":17160,
			"target":34962
		},
		{
			"buffer":0,
			"byteLength":11440,
			"byteOffset":28600,
			"target":34962
		},
		{
			"buffer":0,
			"byteLength":17160,
			"byteOffset":40040,
			"target":34962
		},
		{
			"buffer":0,
			"byteLength":3420,
			"byteOffset":57200,
			"target":34963
		},
		{
			"buffer":0,
			"byteLength":1176,
			"byteOffset":60620,
			"target":34962
		},
		{
			"buffer":0,
			"byteLength":784,
			"byteOffset":61796,
			"target":34962
		},
		{
			"buffer":0,
			"byteLength":784,
			"byteOffset":62580,
			"target":34962
		},
		{
			"buffer":0,
			"byteLength":1176,
			"byteOffset":63364,
			"target":34962
		},
		{
			"buffer":0,
			"byteLength":204,
			"byteOffset":64540,
			"target":34963
		}
	],
	"buffers":[
		{
			"byteLength":64744,
			"uri":"tree1.bin"
		}
	]
}
